<?xml version="1.0" encoding="UTF-8"?><svg id="Layer_1" xmlns="http://www.w3.org/2000/svg" viewBox="0 0 512 512"><defs><style>.cls-1{fill:#fff;}</style></defs><rect width="512" height="512"/><path class="cls-1" d="M289.646,101.041c13.882,0,26.387,2.243,37.532,6.729,11.145,4.486,20.7,10.633,28.648,18.439,7.966,7.824,14.041,16.867,18.245,27.129,4.186,10.279,6.288,21.354,6.288,33.205,0,18.227-3.833,34.017-11.498,47.317-7.683,13.317-20.188,23.438-37.55,30.379v.865c8.39,2.331,15.331,5.864,20.824,10.65,5.493,4.769,9.997,10.403,13.459,16.92,3.479,6.517,6.005,13.671,7.595,21.495,1.59,7.807,2.685,15.613,3.268,23.438.283,4.91.565,10.703.865,17.362.283,6.659.795,13.459,1.519,20.4s1.872,13.529,3.462,19.746,3.992,11.498,7.171,15.843h-68.141c-3.78-9.838-6.093-21.548-6.959-35.165-.865-13.6-2.172-26.617-3.903-39.051-2.314-16.214-7.241-28.065-14.748-35.607-7.542-7.524-19.835-11.286-36.896-11.286h-68.158v121.11h-68.141V101.041h167.12ZM265.326,241.243c15.631,0,27.359-3.479,35.165-10.421,7.807-6.941,11.71-18.227,11.71-33.858,0-15.048-3.903-25.963-11.71-32.763-7.807-6.8-19.534-10.209-35.165-10.209h-74.658v87.251h74.658Z"/></svg>